<?xml version="1.0" standalone="no"?>
<!DOCTYPE svg PUBLIC "-//W3C//DTD SVG 20010904//EN"
 "http://www.w3.org/TR/2001/REC-SVG-20010904/DTD/svg10.dtd">
<svg version="1.0" xmlns="http://www.w3.org/2000/svg"
 width="512.000000pt" height="512.000000pt" viewBox="0 0 512.000000 512.000000"
 preserveAspectRatio="xMidYMid meet">

<g transform="translate(0.000000,512.000000) scale(0.100000,-0.100000)"
fill="#000000" stroke="none">
<path d="M0 3873 c1 -1205 1 -1246 18 -1197 10 28 32 68 49 90 17 21 481 487
1030 1034 1038 1035 1032 1030 1173 1087 177 71 403 71 580 0 129 -52 167 -84
497 -410 l321 -319 4 189 c3 171 6 192 26 234 31 63 86 117 151 147 46 21 63
24 130 20 119 -7 203 -64 253 -173 23 -50 23 -53 26 -530 l3 -480 403 -405
c222 -223 409 -416 417 -430 7 -14 18 -43 25 -65 10 -33 13 190 13 1208 l1
1247 -2560 0 -2560 0 0 -1247z"/>
<path d="M2490 4349 c-14 -5 -475 -459 -1025 -1008 -712 -712 -1013 -1005
-1044 -1021 -162 -81 -368 17 -412 195 -4 17 -7 -543 -8 -1242 l-1 -1273 2560
0 2560 0 -1 1273 c-1 699 -4 1259 -8 1242 -44 -178 -250 -276 -412 -195 -31
16 -333 310 -1044 1020 -562 561 -1012 1004 -1028 1009 -35 13 -103 13 -137 0z
m123 -563 c19 -8 398 -381 909 -892 753 -755 878 -884 883 -914 3 -19 5 -339
3 -710 l-3 -675 -25 -65 c-52 -132 -135 -228 -251 -290 -109 -58 -129 -60
-631 -60 l-458 0 -2 653 -3 652 -475 0 -475 0 -3 -652 -2 -653 -456 0 c-500 0
-524 2 -634 61 -115 61 -198 158 -250 289 l-25 65 -3 675 c-2 371 0 691 3 710
5 30 130 159 883 913 482 484 891 885 907 893 39 17 68 17 108 0z"/>
</g>
</svg>
